<svg xmlns="http://www.w3.org/2000/svg" xml:space="preserve" id="hoodie" x="0" y="0" enable-background="new 0 0 70 70" version="1.1" viewBox="0 0 70 70">
  <path fill="#488fcc" d="M21.27,57.013h-6.001c-1.214,0-2.198-0.984-2.198-2.198V30.613c0-6.07,4.921-10.991,10.991-10.991h21.876
			c6.07,0,10.991,4.921,10.991,10.991v24.203c0,1.214-0.984,2.198-2.198,2.198H48.73H21.27z"></path>
  <path fill="#2f84c6" d="M18.096,30.608v24.21c0,1.21,0.98,2.2,2.2,2.2h-5.03c-1.21,0-2.2-0.99-2.2-2.2v-24.21
			c0-6.07,4.93-10.99,11-10.99h5.02C23.016,19.618,18.096,24.538,18.096,30.608z"></path>
  <path fill="#488fcc" d="M48.727,34.651V61.03c0,1.214-0.984,2.198-2.198,2.198H23.471c-1.214,0-2.198-0.984-2.198-2.198V34.651
			H48.727z"></path>
  <path fill="#2f84c6" d="M26.976,63.228h-3.5c-1.215,0-2.2-0.985-2.2-2.2v-26.38h0c1.933,0,3.5,1.567,3.5,3.5v22.88
			C24.776,62.248,25.756,63.228,26.976,63.228z"></path>
  <path fill="#488fcc" d="M43.988,24.347c0,0,3.23-8.173,3.23-11.829c0-6.103-5.483-8.767-12.217-8.767
			c-6.755,0-12.218,2.664-12.218,8.767c0,3.656,3.221,11.829,3.221,11.829H43.988z"></path>
  <path fill="#2f84c6" d="M26.936,12.518c0,2.008,0.969,5.373,1.844,8.003c0.627,1.885-0.788,3.827-2.774,3.827h0
			c0,0-3.22-8.17-3.22-11.83c0-6.1,5.46-8.77,12.21-8.77c0.71,0,1.41,0.03,2.08,0.1C31.306,4.348,26.936,7.058,26.936,12.518z"></path>
  <path fill="#445a66" d="M42.267,14.557c0,4.52-3.261,11.535-7.267,11.535c-4.018,0-7.267-7.015-7.267-11.535
			c0-4.506,3.249-4.815,7.267-4.815C39.006,9.742,42.267,10.051,42.267,14.557z"></path>
  <path fill="#3c515b" d="M30.356,17.178c0,2.55,1.03,5.89,2.66,8.33c-3.05-1.74-5.28-7.2-5.28-10.95c0-4.51,3.25-4.82,7.26-4.82
			c3.41,0,6.28,0.22,7.06,3.07c-1.22-0.38-2.76-0.44-4.43-0.44C33.606,12.368,30.356,12.668,30.356,17.178z"></path>
  <path fill="#445a66" d="M48.73 60.036h4.902c.607 0 1.099-.492 1.099-1.099v-1.923H48.73V60.036zM21.27 60.036h-4.902c-.607 0-1.099-.492-1.099-1.099v-1.923h6.001V60.036zM24.57 66.25h20.86c.607 0 1.099-.492 1.099-1.099v-1.923H23.471v1.923C23.471 65.758 23.963 66.25 24.57 66.25z"></path>
  <path d="M46.669,18.912c0.692-2.279,1.298-4.746,1.298-6.395C47.968,6.558,43.12,3,35,3s-12.968,3.558-12.968,9.518
			c0,1.647,0.604,4.113,1.293,6.391c-6.131,0.383-11.005,5.478-11.005,11.704v24.203c0,1.365,0.937,2.505,2.198,2.84v1.282
			c0,1.02,0.83,1.85,1.849,1.85h4.154v0.243c0,1.365,0.937,2.505,2.198,2.84v1.283c0,1.02,0.83,1.849,1.849,1.849h20.86
			c1.02,0,1.849-0.829,1.849-1.849v-1.283c1.261-0.334,2.198-1.474,2.198-2.84v-0.243h4.155c1.02,0,1.849-0.83,1.849-1.85v-1.282
			c1.261-0.334,2.198-1.474,2.198-2.84V30.612C57.679,24.385,52.802,19.293,46.669,18.912z M20.52,59.286h-4.152
			c-0.192,0-0.349-0.157-0.349-0.35v-1.173h4.501V59.286z M45.779,65.151c0,0.192-0.157,0.349-0.349,0.349H24.57
			c-0.192,0-0.349-0.156-0.349-0.349v-1.174h21.558V65.151z M35.07,25.334c-0.024-0.002-0.045-0.014-0.07-0.014
			c-0.025,0-0.046,0.012-0.071,0.014c-3.503-0.088-6.446-6.645-6.446-10.777c0-3.501,1.921-4.065,6.517-4.065
			c4.506,0,6.517,0.587,6.517,4.065C41.517,18.594,38.511,25.244,35.07,25.334z M53.981,58.937c0,0.192-0.157,0.35-0.349,0.35
			h-4.152v-1.522h4.501V58.937z M54.731,56.264h-5.254V34.651c0-0.414-0.336-0.75-0.75-0.75s-0.75,0.336-0.75,0.75v26.378
			c0,0.799-0.65,1.448-1.448,1.448H35.75v-35.71c4.195-0.753,7.267-7.645,7.267-12.21c0-5.565-4.633-5.565-8.017-5.565
			s-8.017,0-8.017,5.565c0,4.565,3.073,11.457,7.267,12.21v35.71H23.471c-0.798,0-1.448-0.649-1.448-1.448V34.651
			c0-0.414-0.336-0.75-0.75-0.75s-0.75,0.336-0.75,0.75v21.612h-5.253c-0.798,0-1.448-0.649-1.448-1.448v-8.843h2.346
			c0.414,0,0.75-0.336,0.75-0.75s-0.336-0.75-0.75-0.75h-2.346v-3.49h2.346c0.414,0,0.75-0.336,0.75-0.75s-0.336-0.75-0.75-0.75
			h-2.346v-3.489h2.346c0.414,0,0.75-0.336,0.75-0.75s-0.336-0.75-0.75-0.75h-2.346v-3.881c0-5.557,4.45-10.083,9.972-10.228
			c0.742,2.267,1.451,4.08,1.513,4.237c0.152,0.386,0.588,0.573,0.973,0.423c0.385-0.152,0.575-0.588,0.423-0.974
			c-0.032-0.08-3.168-8.082-3.168-11.554C23.532,5.078,32.31,4.5,35,4.5s11.468,0.578,11.468,8.018
			c0,3.472-3.146,11.473-3.178,11.554c-0.152,0.385,0.037,0.82,0.422,0.973c0.378,0.151,0.819-0.031,0.973-0.422
			c0.062-0.157,0.773-1.97,1.517-4.238c5.524,0.142,9.977,4.67,9.977,10.228v3.881h-2.346c-0.414,0-0.75,0.336-0.75,0.75
			s0.336,0.75,0.75,0.75h2.346v3.489h-2.346c-0.414,0-0.75,0.336-0.75,0.75s0.336,0.75,0.75,0.75h2.346v3.49h-2.346
			c-0.414,0-0.75,0.336-0.75,0.75s0.336,0.75,0.75,0.75h2.346v8.843C56.179,55.614,55.529,56.264,54.731,56.264z"></path>
  <path d="M40.555 50.358c-.293-.293-.768-.293-1.061 0s-.293.768 0 1.061l4.57 4.57c.293.293.768.293 1.061 0 .293-.293.293-.768 0-1.061L40.555 50.358zM24.875 55.989c.293.293.768.293 1.061 0l4.57-4.57c.293-.293.293-.768 0-1.061s-.768-.293-1.061 0l-4.57 4.57C24.582 55.222 24.582 55.696 24.875 55.989zM44.558 36.137c0-.414-.336-.75-.75-.75h-4.656c-.414 0-.75.336-.75.75s.336.75.75.75h4.656C44.222 36.887 44.558 36.551 44.558 36.137z"></path>
</svg>
