<svg xmlns="http://www.w3.org/2000/svg" enable-background="new 0 0 68 68" viewBox="0 0 68 68" id="pants">
  <path fill="#96c" d="M55.85085,66.0001h-9.80042c-0.68468,0-1.28447-0.45869-1.46382-1.11947L33.99999,25.87624L23.4134,64.88063
			c-0.17935,0.66077-0.77914,1.11947-1.46382,1.11948l-9.80022,0.00001c-0.92704,0-1.63744-0.8228-1.50032-1.73964
			c1.52444-10.19321,6.50604-43.53204,8.5371-57.12149h29.62774l1.75946,11.78028l6.77762,45.33981
			C57.48802,65.1759,56.77786,66.0001,55.85085,66.0001z"></path>
  <path fill="#7b51b7" d="M50.57775 18.9149h-3.68121c-2.30165 0-4.16751-1.86586-4.16751-4.16751V7.14183h6.08591L50.57775 18.9149zM17.41586 18.9149h3.68121c2.30165 0 4.16751-1.86586 4.16751-4.16751V7.14183h-6.08591L17.41586 18.9149zM36.14458 18.12449c-1.80078 0-3.2666-1.46582-3.2666-3.2666V7.14207c0-.41406.33594-.75.75-.75s.75.33594.75.75v7.71582c0 .97363.79297 1.7666 1.7666 1.7666.41406 0 .75.33594.75.75S36.55864 18.12449 36.14458 18.12449z"></path>
  <polygon fill="#7b51b7" points="57.197 63.26 44.142 63.26 43.738 61.743 56.974 61.743"></polygon>
  <polygon fill="#7b51b7" points="24.262 61.743 23.858 63.26 10.803 63.26 11.026 61.743"></polygon>
  <polygon fill="#7b51b7" points="32.718 20.692 33.999 25.872 29.696 41.734"></polygon>
  <path fill="#c9eaf5" d="M19.18619,3.51666v3.6278h29.62545v-3.6278c0-0.83769-0.67908-1.51678-1.51678-1.51678H20.70297
			C19.86527,1.99989,19.18619,2.67897,19.18619,3.51666z"></path>
  <path fill="#fff" d="M18.71099 35.72801c-.02441 0-.0498-.00195-.0752-.00586-.27246-.04004-.46094-.29492-.41992-.56836l.26758-1.79395c.04102-.27246.29102-.45996.56836-.41992.27246.04004.46094.29492.41992.56836l-.26758 1.79395C19.16704 35.55027 18.95415 35.72801 18.71099 35.72801zM15.85552 54.83934c-.02539 0-.0498-.00195-.0752-.00586-.27246-.04004-.46094-.29492-.41992-.56836l2.30176-15.40625c.04102-.27441.29492-.46582.56836-.41992.27246.04004.46094.29492.41992.56836l-2.30176 15.40625C16.31157 54.6616 16.09868 54.83934 15.85552 54.83934zM50.46099 46.03172c-.24316 0-.45605-.17773-.49316-.42578l-1.46777-9.8252c-.04102-.27344.14746-.52832.41992-.56836.27246-.03613.52832.14648.56836.41992l1.46777 9.8252c.04102.27344-.14746.52832-.41992.56836C50.51079 46.02977 50.48638 46.03172 50.46099 46.03172zM48.38384 32.13133c-.24316 0-.45703-.17871-.49316-.42676l-.14551-.97852c-.04102-.27246.14746-.52734.4209-.56738.2666-.04199.52832.14746.56738.4209l.14551.97852c.04102.27246-.14746.52734-.4209.56738C48.43364 32.12938 48.40825 32.13133 48.38384 32.13133z"></path>
</svg>
