<svg xmlns="http://www.w3.org/2000/svg" viewBox="0 0 512 512" id="player-t-shirt">
  <path fill="#e3232e" d="M159.4 47.8 69.7 98.7 7.5 203.2 64 257l46.1-62.1c16.5 81.9 23.5 199.6 19.6 283.1l-1.3 26.6H385l-1.3-28.5c-3.8-83.8 2.9-199 19.6-281.1l47.1 62.1 54.1-53.7-59.8-104.7-89.8-50.9"></path>
  <path fill="#237fc0" d="m86.2 227.1-57.2-60-21.5 36.1L64 257zM484.3 167.2l-57.2 59 23.3 30.8 54.1-53.8z"></path>
  <path fill="none" d="M159.4 47.8 258 158.6l96.9-110.8"></path>
  <path fill="#e1762f" d="m329.2 7.5 25.7 40.3L258 158.6 159.4 47.8l27.4-40.3z"></path>
  <path fill="#e1762f" d="M329.2 7.5H186.8l71.2 92.6z"></path>
  <path fill="none" d="m257.8 99.9 40.1-52-80.5-.7z"></path>
  <path fill="none" d="m257.8 99.9 40.1-52-80.5-.7z"></path>
  <path fill="#2380bf" d="m258 100.1 40.6-52.8-81.2-.1zM350.6 176l-22.8 73-13.3-43h-30l22.8 76.9h35.6L380.6 176z"></path>
  <path d="M380.6 168.5h-30a7.5 7.5 0 0 0-7.2 5.3l-15.6 50-6.2-20c-1-3.1-3.9-5.3-7.2-5.3h-30c-4.1 0-7.5 3.4-7.5 7.5 0 .7.1 1.4.3 2.1l22.8 77c.9 3.2 3.9 5.4 7.2 5.4h35.6c3.2 0 6-2 7.1-5l37.8-107c1.4-3.9-.6-8.2-4.5-9.6-.8-.3-1.7-.5-2.6-.4zm-43 107h-24.7l-18.3-62H309l11.7 37.7c1 3.1 3.9 5.3 7.2 5.3 3.3 0 6.2-2.1 7.1-5.3l21.2-67.7h13.9l-32.5 92zm173.4-76-19.3-33.8c-.3-1.5-1-2.8-2.1-3.9l-.2-.2-38.1-66.7s0-.1-.1-.1-.2-.3-.3-.4l-.2-.2-.3-.3c-.1-.1-.1-.2-.2-.2l-.3-.3-.3-.3-.3-.2-.3-.3-.3-.2c-.1-.1-.3-.2-.4-.3l-.1-.1-88.1-50-24.6-38.5s0-.1-.1-.1l-.1-.2c-.1-.2-.3-.4-.5-.6l-.1-.2c-.2-.2-.4-.5-.7-.7-.2-.2-.5-.4-.8-.5l-.2-.1c-.3-.1-.5-.3-.8-.4h-.1l-.9-.3-.2-.1c-.3-.1-.5-.1-.8-.2h-.2c-.3 0-.6-.1-.9-.1H186.8c-.3 0-.7 0-1 .1h-.2c-.3 0-.6.1-.9.2h-.1l-.9.3-.2.1c-.2.1-.5.2-.7.4l-.1.1c-.3.2-.5.4-.8.6l-.1.1-.6.6-.2.2c-.2.2-.4.5-.6.7L154 42.2 66 92.1c-1.1.6-2.1 1.6-2.7 2.7l-40.8 68.5c0 .1-.1.1-.1.2L1 199.4c-1.8 3-1.3 6.9 1.3 9.3l56.5 53.7c3 2.8 7.8 2.7 10.6-.3.2-.2.4-.4.6-.7L91.9 232c.2-.2.4-.5.6-.8l13.4-18.1c13.5 76.9 20.2 182.7 16.3 264.5l-1.2 26.6c-.2 4.1 3 7.6 7.1 7.9H385c4.1 0 7.5-3.4 7.5-7.5v-.3l-1.3-28.5c-3.8-82.1 2.9-187.2 16.4-262.8l36.9 48.6c2.5 3.3 7.2 3.9 10.5 1.4.3-.2.5-.4.8-.7l54.1-53.7c2.3-2.4 2.8-6.1 1.1-9.1zM314 15l-19.5 25.3h-73.1L202 15h112zm-31 40.3-25 32.5-25-32.5h50zm-95.9-35 24.1 31.4c.3.5.6.9 1 1.3l39.7 51.7c2.5 3.3 7.2 3.9 10.5 1.4.5-.4 1-.9 1.4-1.4l64.7-84.1 17 26.4-87.6 100.2-89-100.1 18.2-26.8zM63 245.7l-46-43.8 13.4-22.4 46 48.2-13.4 18zm346.3-55.3c-2.5-3.3-7.2-4-10.5-1.5-1.5 1.1-2.5 2.7-2.8 4.5-16 78.5-23.9 192.2-19.8 283l1 20.6H136.3l.9-18.7c4.2-89-3.9-206.1-19.7-284.9-.8-4.1-4.8-6.7-8.8-5.9-1.8.4-3.4 1.4-4.5 2.9l-18.6 25.1-47.2-49.4 36.8-61.9 82.7-46.9 94.5 106.3c1.4 1.6 3.5 2.5 5.6 2.5 2.2 0 4.2-.9 5.6-2.6l92.9-106.2 82.7 46.9 35.5 62.1-46.9 48.5-18.5-24.4zm41.9 55.2L437 226.9l45.5-47 12.6 22.1-43.9 43.6z"></path>
</svg>
