<svg xmlns="http://www.w3.org/2000/svg" id="puffer-coat" viewBox="0 0 48 48">
  <path d="M43.932,40.902l-3.254.574c-.87.153-1.7-.428-1.854-1.298l-.868-4.921c-.192-1.088.535-2.125,1.622-2.317l2.466-.435c1.088-.192,2.125.535,2.317,1.622l.868,4.921c.153.87-.428,1.7-1.298,1.854Z" style="fill:#144493"></path>
  <rect width="9.701" height="10.121" x="35.969" y="27.702" rx="3" ry="3" style="fill:#144493" transform="rotate(-10 40.82 32.762)"></rect>
  <path d="M43.52,37.43l-3.64.64c-1.64.29-3.19-.8-3.48-2.44v-.01c.65.52,1.51.77,2.39.61l5.12-.9c.88-.16,1.61-.68,2.04-1.4v.02c.29,1.63-.8,3.19-2.43,3.48Z" style="fill:#0b3481"></path>
  <path d="M40.444,18.101l-9.76.844,4.262,12.785,7.929-2.379c1.528-.458,2.43-2.032,2.053-3.582l-1.31-5.387c-.35-1.439-1.698-2.408-3.173-2.28Z" style="fill:#144493"></path>
  <path d="M44.883,25.588c-.346.765-.997,1.386-1.865,1.645l-8.706,2.598.633,1.898,7.929-2.379c1.528-.458,2.43-2.032,2.053-3.582l-.044-.181Z" style="fill:#0b3481"></path>
  <path d="M27.211,9.324l9.135.435c1.288.061,2.468.74,3.168,1.822l2.682,4.145c1.052,1.626.311,3.808-1.514,4.457l-7.078,2.515-6.392-13.374Z" style="fill:#144493"></path>
  <path d="M40.711,18.047l-7.975,2.836.867,1.814,7.078-2.515c1.613-.573,2.374-2.342,1.805-3.869-.307.779-.924,1.43-1.775,1.733Z" style="fill:#0b3481"></path>
  <path d="M4.068,40.902l3.254.574c.87.153,1.7-.428,1.854-1.298l.868-4.921c.192-1.088-.535-2.125-1.622-2.317l-2.466-.435c-1.088-.192-2.125.535-2.317,1.622l-.868,4.921c-.153.87.428,1.7,1.298,1.854Z" style="fill:#144493"></path>
  <rect width="10.121" height="9.701" x="2.12" y="27.912" rx="3" ry="3" style="fill:#144493" transform="rotate(-80 7.18 32.763)"></rect>
  <path d="M4.48,37.43l3.64.64c1.64.29,3.19-.8,3.48-2.44v-.01c-.65.52-1.51.77-2.39.61l-5.12-.9c-.88-.16-1.61-.68-2.04-1.4v.02c-.29,1.63.8,3.19,2.43,3.48Z" style="fill:#0b3481"></path>
  <path d="M7.556,18.101l9.76.844-4.262,12.785-7.929-2.379c-1.528-.458-2.43-2.032-2.053-3.582l1.31-5.387c.35-1.439,1.698-2.408,3.173-2.28Z" style="fill:#144493"></path>
  <path d="M3.117,25.588c.346.765.997,1.386,1.865,1.645l8.706,2.598-.633,1.898-7.929-2.379c-1.528-.458-2.43-2.032-2.053-3.582l.044-.181Z" style="fill:#0b3481"></path>
  <path d="M20.789,9.324l-9.135.435c-1.288.061-2.468.74-3.168,1.822l-2.682,4.145c-1.052,1.626-.311,3.808,1.514,4.457l7.078,2.515,6.392-13.374Z" style="fill:#144493"></path>
  <path d="M7.289,18.047l7.975,2.836-.867,1.814-7.078-2.515c-1.613-.573-2.374-2.342-1.805-3.869.307.779.924,1.43,1.775,1.733Z" style="fill:#0b3481"></path>
  <path d="M33.5,45H14.5c-1.105,0-2-.895-2-2v-4h23v4c0,1.105-.895,2-2,2Z" style="fill:#154e9e"></path>
  <rect width="26" height="12" x="11" y="29" rx="4" ry="4" style="fill:#154e9e"></rect>
  <path d="M36.93,37.72c-.34,1.87-1.97,3.28-3.93,3.28H15c-1.96,0-3.59-1.41-3.93-3.28.73.79,1.77,1.28,2.93,1.28h20c1.16,0,2.2-.49,2.93-1.28Z" style="fill:#0d3b8d"></path>
  <rect width="26" height="12" x="11" y="19" rx="4" ry="4" style="fill:#154e9e"></rect>
  <path d="M36.93,27.72c-.34,1.87-1.97,3.28-3.93,3.28H15c-1.96,0-3.59-1.41-3.93-3.28.73.79,1.77,1.28,2.93,1.28h20c1.16,0,2.2-.49,2.93-1.28Z" style="fill:#0d3b8d"></path>
  <path d="M37,11.38v5.62c0,2.209-1.791,4-4,4H15c-2.209,0-4-1.791-4-4v-5.622c0-1.341.882-2.525,2.173-2.886,2.797-.783,6.487-1.491,10.827-1.491,2.656,0,6.45.264,10.823,1.49,1.289.361,2.177,1.551,2.177,2.89Z" style="fill:#154e9e"></path>
  <path d="M36.93,17.72c-.34,1.87-1.97,3.28-3.93,3.28H15c-1.96,0-3.59-1.41-3.93-3.28.73.79,1.77,1.28,2.93,1.28h20c1.16,0,2.2-.49,2.93-1.28Z" style="fill:#0d3b8d"></path>
  <path d="M19.25,3c-.966,0-1.75.784-1.75,1.75v3.083c0,1.197,2.91,2.167,6.5,2.167s6.5-.97,6.5-2.167v-3.083c0-.966-.784-1.75-1.75-1.75h-9.5Z" style="fill:#154e9e"></path>
  <path d="M30.5,5.83v2c0,1.2-2.91,2.17-6.5,2.17s-6.5-.97-6.5-2.17v-2c0,1.2,2.91,2.17,6.5,2.17s6.5-.97,6.5-2.17Z" style="fill:#0d3b8d"></path>
  <rect width="2" height="42" x="23" y="3" style="fill:#0d3b8d"></rect>
</svg>
